<svg xmlns="http://www.w3.org/2000/svg" version="1.1" xmlns:xlink="http://www.w3.org/1999/xlink" xmlns:svgjs="http://svgjs.dev/svgjs" width="1440" height="560" preserveAspectRatio="none" viewBox="0 0 1440 560">
    <g mask="url(&quot;#SvgjsMask1026&quot;)" fill="none">
        <rect width="1440" height="560" x="0" y="0" fill="#0e2a47"></rect>
        <path d="M16.13 165.22 a182.72 182.72 0 1 0 365.44 0 a182.72 182.72 0 1 0 -365.44 0z" fill="rgba(5, 104, 211, 0.4)" class="triangle-float1"></path>
        <path d="M743.3139944949558-45.94535311375346L733.9596419180695 59.81442080518117 818.7472603463109 22.06454092193343z" fill="rgba(5, 104, 211, 0.4)" class="triangle-float2"></path>
        <path d="M645.2972345954753 345.0058315401445L625.8017477335428 503.78383032574976 784.5797465191481 523.2793171876822 804.0752333810806 364.501318402077z" fill="rgba(5, 104, 211, 0.4)" class="triangle-float2"></path>
        <path d="M1204.108,249.41C1231.417,248.274,1249.89,225.317,1264.151,201.999C1279.32,177.196,1296.052,147.819,1281.7,122.534C1267.25,97.076,1233.356,95.008,1204.108,96.214C1177.48,97.312,1150.971,105.898,1136.863,128.509C1121.941,152.423,1121.043,182.746,1134.744,207.38C1148.828,232.703,1175.157,250.614,1204.108,249.41" fill="rgba(5, 104, 211, 0.4)" class="triangle-float1"></path>
        <path d="M840.894,181.388C881.313,180.3,919.409,162.308,940.625,127.887C962.957,91.656,968.319,45.884,947.191,8.937C925.928,-28.246,883.727,-46.353,840.894,-46.516C797.745,-46.68,755.606,-28.745,733.186,8.122C709.906,46.403,707.756,95.467,731.41,133.518C753.948,169.774,798.219,182.537,840.894,181.388" fill="rgba(5, 104, 211, 0.4)" class="triangle-float1"></path>
        <path d="M437.02,611.008C478.704,611.523,516.511,586.489,536.391,549.847C555.402,514.807,551.195,472.581,530.661,438.411C510.776,405.321,475.58,382.63,437.02,384.489C401.069,386.222,375.968,415.667,357.811,446.744C339.434,478.197,325.99,514.631,341.812,547.443C359.576,584.283,396.124,610.503,437.02,611.008" fill="rgba(5, 104, 211, 0.4)" class="triangle-float2"></path>
        <path d="M1237.1383933023944 47.63872140330014L1309.0400465250457 177.35273749992854 1438.7540626216742 105.45108427727727 1366.852409399023-24.262931819351124z" fill="rgba(5, 104, 211, 0.4)" class="triangle-float2"></path>
        <path d="M1083.81,668.658C1141.022,672.224,1190.105,631.507,1218.751,581.855C1247.38,532.232,1254.593,471.495,1226.3,421.68C1197.688,371.303,1141.664,341.209,1083.81,344.266C1030.432,347.086,988.675,387.447,965.213,435.475C944.58,477.713,953.852,524.774,975.162,566.674C999.296,614.126,1030.676,665.347,1083.81,668.658" fill="rgba(5, 104, 211, 0.4)" class="triangle-float1"></path>
        <path d="M975.97 47.33 a154.4 154.4 0 1 0 308.8 0 a154.4 154.4 0 1 0 -308.8 0z" fill="rgba(5, 104, 211, 0.4)" class="triangle-float1"></path>
        <path d="M488.956,515.293C534.165,513.352,572.536,487.021,596.755,448.797C623.157,407.128,639.924,356.277,617.575,312.301C593.425,264.782,542.205,234.257,488.956,236.685C439.076,238.96,403.673,279.667,379.167,323.172C355.235,365.657,339.646,416.457,363.84,458.794C388.175,501.377,439.955,517.396,488.956,515.293" fill="rgba(5, 104, 211, 0.4)" class="triangle-float2"></path>
        <path d="M1147.1350935514406 400.618592850794L1067.469211638257 344.8359417970583 1011.6865605845212 424.5018237102419 1091.352442497705 480.28447476397764z" fill="rgba(5, 104, 211, 0.4)" class="triangle-float1"></path>
        <path d="M891.127,121.801C918.825,121.786,948.039,116.539,963.267,93.403C979.886,68.152,981.645,34.369,965.489,8.82C950.214,-15.337,919.642,-22.627,891.127,-20.68C866.109,-18.972,845.905,-3.287,832.491,17.9C817.813,41.083,805.364,69.586,818.85,93.482C832.48,117.634,863.394,121.816,891.127,121.801" fill="rgba(5, 104, 211, 0.4)" class="triangle-float1"></path>
    </g>
    <defs>
        <mask id="SvgjsMask1026">
            <rect width="1440" height="560" fill="#ffffff"></rect>
        </mask>
        <style>
            @keyframes float1 {
                    0%{transform: translate(0, 0)}
                    50%{transform: translate(-10px, 0)}
                    100%{transform: translate(0, 0)}
                }

                .triangle-float1 {
                    animation: float1 5s infinite;
                }

                @keyframes float2 {
                    0%{transform: translate(0, 0)}
                    50%{transform: translate(-5px, -5px)}
                    100%{transform: translate(0, 0)}
                }

                .triangle-float2 {
                    animation: float2 4s infinite;
                }

                @keyframes float3 {
                    0%{transform: translate(0, 0)}
                    50%{transform: translate(0, -10px)}
                    100%{transform: translate(0, 0)}
                }

                .triangle-float3 {
                    animation: float3 6s infinite;
                }
        </style>
    </defs>
</svg>